<?xml version="1.0" encoding="UTF-8"?>
<svg width="56px" height="56px" viewBox="0 0 56 56" version="1.1" xmlns="http://www.w3.org/2000/svg" xmlns:xlink="http://www.w3.org/1999/xlink">
    <title>编组 10</title>
    <defs>
        <linearGradient x1="50%" y1="0%" x2="50%" y2="100%" id="linearGradient-1">
            <stop stop-color="#F5F5F5" offset="0%"></stop>
            <stop stop-color="#E0E0E0" offset="100%"></stop>
        </linearGradient>
    </defs>
    <g id="PC端" stroke="none" stroke-width="1" fill="none" fill-rule="evenodd">
        <g id="图标Icon" transform="translate(-760.000000, -2364.000000)">
            <g id="编组-10" transform="translate(760.000000, 2364.000000)">
                <g id="头像-无性别" fill="url(#linearGradient-1)">
                    <rect id="Mask备份" x="0" y="0" width="56" height="56"></rect>
                </g>
                <g id="头像_avatar-(1)备份" transform="translate(8.000000, 12.000000)" fill="#FFFFFF" fill-rule="nonzero">
                    <path d="M40,41.3851428 C40,40.9828571 40,35.6022857 39,33.792 C38.4,32.5851428 37.4,31.7805714 36.2,30.976 C34.8,30.1714285 33,29.3668572 30.8,28.9645714 C30.6,28.9645714 29.2,28.7634285 28,28.3611428 C26.6,27.9588571 26,27.7577143 25.8,27.5565714 L25.8,26.3497143 C26,23.7348571 27.4,22.3268572 28.6,21.12 C29,20.7177143 29.4,20.3154285 29.8,19.712 C31.2,17.7005714 31.4,15.6891429 31.4,15.2868571 C31.4,14.8845714 31.4,14.6834286 31.2,14.2811429 C31,13.8788572 30.8,13.4765714 30.6,13.2754286 C30.6,12.672 30.8,12.0685714 30.8,11.6662857 C30.8,10.6605715 31,9.05142856 30.6,7.44228572 C30.6,7.24114285 30.6,6.83885715 30.4,6.43657145 C30,5.22971431 29.6,4.22400004 28.8,3.4194286 C28.4,3.4194286 25.6,0.603428618 18,0 L15,0 C14.6,0 14.2,0 13.8,0.201142873 C12.4,0.603428571 12.2,1.60914289 12,2.01142859 L12,3.21828573 L11.8,3.4194286 C11.6,3.62057147 9.60000004,5.43085719 9.40000002,7.84457142 C9.20000001,9.45371426 9.20000001,11.8674285 9.40000002,13.6777143 C9.20000001,14.08 8.80000002,14.4822858 8.80000002,15.488 C8.80000002,15.8902857 9,17.9017143 10.4,19.712 C10.8,20.1142857 11,20.5165715 11.6,21.12 C12.8,22.528 14.2,23.936 14.4,26.3497143 L14.4,27.5565714 C14,27.7577143 13.4,28.16 12,28.5622857 C10.6,28.9645714 9.20000001,29.1657143 9,29.1657143 C7,29.568 5.19999998,30.1714285 3.80000001,30.976 C2.60000001,31.7805714 1.60000003,32.7862857 1,33.792 C0,35.6022857 0,40.9828571 0,41.3851428 L0,42.3908571 C0,43.1954286 0.800000015,44 1.8,44 L38.2,44 C39.2,44 40,43.1954286 40,42.1897143 L40,41.3851428 Z" id="路径"></path>
                </g>
            </g>
        </g>
    </g>
</svg>